<svg width="64" height="64" viewBox="0 0 64 64" fill="none" xmlns="http://www.w3.org/2000/svg">
<g clip-path="url(#clip0_225_355)">
<rect width="64" height="64" fill="#181A00"/>
<path d="M53.438 15.4101C53.5111 15.434 53.5836 15.4596 53.6555 15.4868C56.766 16.6612 56.8014 18.4084 58.0347 21.1416C59.0678 23.4311 59.9001 25.6897 58.7947 28.1727C54.3355 38.1891 34.3203 46.1572 24.4077 42.3213C21.4947 41.0995 20.6844 39.0867 19.6361 36.3239C18.902 34.3891 17.8816 32.5924 18.6481 30.4562C20.4329 25.4822 25.7508 22.233 30.1714 19.7955C31.4608 19.1085 33.8163 18.0314 35.1588 17.5126C39.0769 15.9613 43.213 15.0303 47.418 14.7531C49.6596 14.6246 51.2838 14.698 53.438 15.4101Z" fill="#FAED36"/>
<path opacity="0.4" d="M54.8516 15.7143C55.774 15.9611 56.5022 16.7299 57.0003 17.4999C57.0042 17.5328 57.0076 17.5657 57.0103 17.5987C57.1262 18.9788 57.47 21.4449 56.51 22.4291C48.6805 30.4558 36.8711 35.2067 25.8411 36.4068C23.629 36.6475 20.1143 35.3785 18.5004 33.9996C18.1527 33.5973 17.8217 33.1581 17.6176 32.6657C17.9066 30.7389 17.8351 30.5494 18.9313 28.9995C19.0174 29.1778 19.1102 29.3583 19.2196 29.5236C20.0972 30.8477 21.4147 31.4854 22.9243 31.808C29.627 33.2401 40.784 28.9023 46.4176 25.2402C49.9025 22.9749 52.8943 20.8549 53.8085 16.5412C53.5973 16.0943 53.3518 15.7438 53.7549 15.3613C54.4257 15.137 54.0932 15.5251 54.8516 15.7143Z" fill="#181A00"/>
<path d="M13.5739 35.0793C15.4107 35.6705 15.4454 37.6672 13.7073 38.3152C12.622 38.7198 11.3497 39.3273 10.2772 39.6912C8.87698 40.1663 5.80054 41.7807 4.49092 41.8014C3.62345 41.5098 3.28901 41.1354 2.9844 40.2918C3.05573 39.8965 3.14787 39.3813 3.43812 39.086C3.89527 38.621 11.335 35.6294 12.515 35.2591C12.8737 35.1465 13.1952 35.0794 13.5739 35.0793Z" fill="white"/>
<path d="M16.5003 41.915L-6.99976 51.915" stroke="white" stroke-width="3" stroke-linecap="round"/>
</g>
<defs>
<clipPath id="clip0_225_355">
<rect width="64" height="64" fill="white"/>
</clipPath>
</defs>
</svg>
