<svg width="120" height="120" viewBox="0 0 120 120" fill="none" xmlns="http://www.w3.org/2000/svg">
<path d="M108.75 56.2499V59.9999C108.75 66.4165 107.483 72.7699 105.023 78.6959C102.562 84.6218 98.9554 90.0037 94.4102 94.5328C89.8649 99.0619 84.4703 102.649 78.5356 105.089C72.601 107.529 66.2431 108.773 59.8266 108.75C34.5141 108.661 13.8891 89.0343 11.4891 64.3218C11.463 63.9999 11.5206 63.6767 11.6562 63.3835C11.7918 63.0904 12.0008 62.8373 12.263 62.6487C12.5251 62.4601 12.8316 62.3424 13.1526 62.307C13.4736 62.2716 13.7984 62.3198 14.0953 62.4468C17.4682 63.8627 21.2103 64.1423 24.7562 63.2434C28.3021 62.3444 31.459 60.3158 33.75 57.464C35.2511 59.3307 37.1332 60.8557 39.2707 61.9371C41.4081 63.0184 43.7517 63.6313 46.1449 63.7346C48.5381 63.838 50.9258 63.4296 53.1486 62.5365C55.3713 61.6435 57.3779 60.2865 59.0344 58.5561C60.5524 61.0224 62.6164 63.1072 65.0672 64.6499C62.325 66.7479 60.1031 69.4495 58.574 72.5452C57.0449 75.6408 56.2496 79.0472 56.25 82.4999C56.2482 83.0199 56.3545 83.5347 56.5623 84.0114C56.7701 84.4881 57.0748 84.9164 57.457 85.2691C57.8392 85.6217 58.2905 85.891 58.7824 86.0599C59.2742 86.2288 59.7959 86.2934 60.3141 86.2499C61.2657 86.1474 62.145 85.6939 62.7803 84.978C63.4156 84.2621 63.7613 83.3351 63.75 82.378C63.7822 78.4209 65.3767 74.6369 68.1863 71.8501C70.9958 69.0634 74.7928 67.4998 78.75 67.4999C79.2641 67.501 79.7729 67.3964 80.2449 67.1926C80.7168 66.9888 81.1418 66.6902 81.4935 66.3152C81.8452 65.9403 82.116 65.497 82.2891 65.0129C82.4623 64.5289 82.5341 64.0144 82.5 63.5015C82.4161 62.5376 81.9709 61.641 81.2537 60.9916C80.5365 60.3422 79.6003 59.988 78.6328 59.9999H75C72.0163 59.9999 69.1548 58.8146 67.0451 56.7049C64.9353 54.5951 63.75 51.7336 63.75 48.7499V41.2499H93.75C97.7282 41.2499 101.544 42.8303 104.357 45.6433C107.17 48.4563 108.75 52.2717 108.75 56.2499ZM20.9672 56.2499C26.0484 56.0624 30 51.7358 30 46.6499V35.8686C30 30.764 26.0484 26.4374 20.9672 26.2499C19.7076 26.2039 18.4516 26.4124 17.2744 26.8629C16.0971 27.3134 15.0229 27.9966 14.1157 28.8718C13.2086 29.747 12.4873 30.7961 11.9949 31.9564C11.5025 33.1167 11.2492 34.3644 11.25 35.6249V46.8749C11.2492 48.1354 11.5025 49.3831 11.9949 50.5434C12.4873 51.7037 13.2086 52.7528 14.1157 53.628C15.0229 54.5032 16.0971 55.1864 17.2744 55.6369C18.4516 56.0874 19.7076 56.2959 20.9672 56.2499ZM47.2172 56.2499C52.2984 56.0671 56.25 51.7405 56.25 46.6546V24.6233C56.25 19.5374 52.2984 15.2108 47.2172 15.028C45.9599 14.9821 44.7063 15.1897 43.5309 15.6385C42.3556 16.0872 41.2826 16.768 40.3758 17.6402C39.4691 18.5123 38.7472 19.5581 38.2531 20.7151C37.7591 21.8722 37.5029 23.1168 37.5 24.3749V46.8749C37.4992 48.1354 37.7525 49.3831 38.2449 50.5434C38.7373 51.7037 39.4586 52.7528 40.3657 53.628C41.2729 54.5032 42.3471 55.1864 43.5244 55.6369C44.7016 56.0874 45.9576 56.2959 47.2172 56.2499ZM82.5 24.3749C82.5008 23.1144 82.2475 21.8667 81.7551 20.7064C81.2627 19.5461 80.5414 18.497 79.6343 17.6218C78.7271 16.7466 77.6529 16.0634 76.4756 15.6129C75.2984 15.1624 74.0424 14.9539 72.7828 14.9999C67.7016 15.1874 63.75 19.514 63.75 24.5999V33.7499H80.625C81.1223 33.7499 81.5992 33.5524 81.9508 33.2007C82.3025 32.8491 82.5 32.3722 82.5 31.8749V24.3749Z" fill="#FAED36"/>
</svg>
