<svg width="135" height="87" viewBox="0 0 135 87" fill="none" xmlns="http://www.w3.org/2000/svg">
<path d="M92.4703 86.0263C87.5729 86.0263 82.9977 85.2852 78.7447 83.8031C74.4918 82.2566 70.6898 80.1946 67.339 77.617C63.8593 75.0394 60.7984 72.0108 58.1564 68.5311C55.5788 65.0513 53.549 60.9917 52.0669 56.3521C50.6492 52.0991 49.9404 47.5561 49.9404 42.7232C49.9404 38.0835 50.6492 33.605 52.0669 29.2876C53.4846 24.9702 55.4822 21.0394 58.0598 17.4952C60.7662 13.8222 63.8915 10.6969 67.4357 8.11934C71.0443 5.54177 74.8784 3.57638 78.9381 2.22315C81.0645 1.51432 83.2555 0.96659 85.5108 0.579957C87.7662 0.193319 90.086 0 92.4703 0C97.0455 0 101.492 0.741052 105.809 2.22315C110.191 3.70525 114.122 5.70287 117.602 8.216C121.017 10.7936 124.045 13.8866 126.688 17.4952C129.394 21.0394 131.456 24.9702 132.874 29.2876C133.518 31.4141 134.034 33.605 134.42 35.8604C134.807 38.1158 135 40.4034 135 42.7232C135 46.5895 134.388 50.7458 133.164 55.1922C132.004 59.6385 129.877 64.0203 126.784 68.3377C124.207 71.9463 121.113 75.0716 117.505 77.7136C113.896 80.3557 110.03 82.3855 105.906 83.8031C103.779 84.512 101.588 85.0597 99.3331 85.4464C97.0777 85.833 94.7901 86.0263 92.4703 86.0263ZM92.5669 65.2447C94.6934 65.2447 96.8199 64.8903 98.9464 64.1814C101.137 63.4726 103.071 62.4093 104.746 60.9917C106.872 59.3163 108.516 57.512 109.676 55.5788C110.9 53.5812 111.738 51.7447 112.189 50.0692C112.511 48.9738 112.769 47.8461 112.962 46.6862C113.155 45.4618 113.252 44.2375 113.252 43.0131C113.252 40.5 112.897 38.148 112.189 35.9571C111.48 33.7017 110.513 31.6396 109.289 29.7709C108.193 28.2244 106.808 26.7423 105.133 25.3246C103.457 23.8425 101.427 22.6826 99.0431 21.8449C96.9166 21.1361 94.7579 20.7816 92.5669 20.7816C87.9273 20.7816 83.8354 22.1671 80.2913 24.938C78.6159 26.2267 77.1015 27.8377 75.7483 29.7709C74.3951 31.6396 73.3963 33.6695 72.7519 35.8604C72.4297 36.9559 72.1719 38.1158 71.9786 39.3401C71.7853 40.5645 71.6886 41.7888 71.6886 43.0131C71.6886 45.0108 71.9786 47.1373 72.5586 49.3926C73.1385 51.648 74.2018 53.9034 75.7483 56.1587C76.9726 57.963 78.4225 59.5418 80.098 60.895C81.7734 62.2482 83.7388 63.3115 85.9942 64.0848C88.1206 64.858 90.3116 65.2447 92.5669 65.2447Z" fill="#FAED36"/>
<path d="M0 23.7626L43.0937 20.9434L46.7184 15.3049C48.1339 13.103 52.3568 9.6665 52.3568 9.6665L0 23.7626Z" fill="#FAED36"/>
<path d="M0 40.6779L43.0937 45.5108C43.0937 45.5108 42.2592 40.1708 42.2882 37.4559C42.3155 34.8957 43.8992 29.401 43.8992 29.401L0 40.6779Z" fill="#FAED36"/>
<path d="M6.04117 51.552L43.0937 57.1904C43.0937 57.1904 43.6823 60.5482 44.7047 62.8288C45.727 65.1094 48.3294 68.87 48.3294 68.87L6.04117 51.552Z" fill="#FAED36"/>
</svg>
