<svg width="229" height="176" viewBox="0 0 229 176" fill="none" xmlns="http://www.w3.org/2000/svg">
<rect x="46.5586" y="51.7505" width="131" height="71" rx="8" fill="#FEFCE1"/>
<rect x="46.5586" y="51.7505" width="131" height="71" rx="8" stroke="#181A00" stroke-width="8"/>
<rect x="58.5586" y="73.7505" width="8" height="27" rx="4" fill="#181A00"/>
<g clip-path="url(#clip0_184_409)">
<path d="M55.7134 28.3274C55.9947 28.6087 56.1527 28.9902 56.1527 29.388C56.1527 29.7859 55.9947 30.1674 55.7134 30.4487C55.4321 30.73 55.0505 30.888 54.6527 30.888C54.2549 30.888 53.8734 30.73 53.5921 30.4487C51.3107 28.1692 48.4113 26.6082 45.2523 25.9587C42.0933 25.3093 38.8133 25.5998 35.8176 26.7944C32.822 27.989 30.2421 30.0354 28.397 32.6804C26.5518 35.3254 25.5222 38.4532 25.4355 41.6771L32.3789 41.6758C32.6757 41.6756 32.9659 41.7635 33.2128 41.9284C33.4596 42.0933 33.652 42.3277 33.7656 42.6019C33.8791 42.8762 33.9088 43.178 33.8507 43.4691C33.7927 43.7602 33.6496 44.0275 33.4395 44.2373L24.9542 52.7226C24.6729 53.0039 24.2914 53.1619 23.8936 53.1619C23.4957 53.1619 23.1142 53.0039 22.8329 52.7226L14.3476 44.2373C14.1376 44.0275 13.9945 43.7602 13.9364 43.4691C13.8784 43.178 13.908 42.8762 14.0216 42.6019C14.1351 42.3277 14.3275 42.0933 14.5744 41.9284C14.8212 41.7635 15.1114 41.6756 15.4083 41.6758L22.4299 41.6758C22.5161 37.8575 23.7217 34.1486 25.897 31.0095C28.0723 27.8703 31.1216 25.439 34.6664 24.0173C38.2111 22.5957 42.0954 22.2463 45.8369 23.0125C49.5785 23.7787 53.0128 25.6268 55.7134 28.3274Z" fill="#181A00"/>
</g>
<g clip-path="url(#clip1_184_409)">
<path d="M173.286 148.055C173.004 147.774 172.846 147.393 172.846 146.995C172.846 146.597 173.004 146.215 173.286 145.934C173.567 145.653 173.948 145.495 174.346 145.495C174.744 145.495 175.126 145.653 175.407 145.934C177.688 148.214 180.588 149.775 183.747 150.424C186.906 151.074 190.186 150.783 193.181 149.588C196.177 148.394 198.757 146.347 200.602 143.702C202.447 141.057 203.477 137.93 203.564 134.706L196.62 134.707C196.323 134.707 196.033 134.619 195.786 134.454C195.539 134.29 195.347 134.055 195.233 133.781C195.12 133.507 195.09 133.205 195.148 132.914C195.206 132.623 195.349 132.355 195.56 132.146L204.045 123.66C204.326 123.379 204.708 123.221 205.105 123.221C205.503 123.221 205.885 123.379 206.166 123.66L214.651 132.146C214.861 132.355 215.005 132.623 215.063 132.914C215.121 133.205 215.091 133.507 214.977 133.781C214.864 134.055 214.672 134.29 214.425 134.454C214.178 134.619 213.888 134.707 213.591 134.707L206.569 134.707C206.483 138.525 205.277 142.234 203.102 145.373C200.927 148.513 197.877 150.944 194.333 152.365C190.788 153.787 186.904 154.137 183.162 153.37C179.42 152.604 175.986 150.756 173.286 148.055Z" fill="#181A00"/>
</g>
<defs>
<clipPath id="clip0_184_409">
<rect width="48" height="48" fill="white" transform="translate(0.558594 34.6914) rotate(-45)"/>
</clipPath>
<clipPath id="clip1_184_409">
<rect width="48" height="48" fill="white" transform="translate(228.44 141.691) rotate(135)"/>
</clipPath>
</defs>
</svg>
