<svg width="64" height="65" viewBox="0 0 64 65" fill="none" xmlns="http://www.w3.org/2000/svg">
<rect width="63.8755" height="64.125" fill="#181A00"/>
<path d="M30.7904 9.07077C32.6475 8.89896 36.3795 8.99942 37.8408 10.1528C38.7849 10.8979 38.2887 13.2025 36.8784 13.4353C35.8505 13.6051 35.0218 13.3534 34.0017 13.2319C33.4292 13.1666 32.8538 13.129 32.2775 13.1191C27.5292 13.0628 22.6214 15.0853 19.2292 18.3847C15.6618 21.8242 13.6379 26.5516 13.6157 31.497C13.5797 36.3935 15.4922 41.105 18.9348 44.6004C22.3563 48.087 27.0373 50.0631 31.932 50.0871C36.8973 50.1734 41.6874 48.2606 45.218 44.7819C48.0898 41.9707 49.945 38.2903 50.4931 34.3169C50.8011 32.2372 50.7804 30.3977 50.3868 28.3314C50.3104 27.93 50.294 27.4421 50.2964 27.0328C50.4507 26.8047 50.5689 26.5666 50.7382 26.3409C51.064 25.8989 51.554 25.6057 52.0986 25.5266C52.8612 25.4189 53.3839 25.7552 53.9542 26.1876C54.5602 26.9455 54.7495 29.5033 54.8045 30.5047C55.5663 44.3751 43.3821 55.719 29.5507 54.0632C29.2776 54.0305 28.9907 54.0173 28.7145 53.9745C10.7708 51.1921 3.19745 29.4475 15.6025 16.2132C19.575 11.975 24.9619 9.41189 30.7904 9.07077Z" fill="white"/>
<path d="M45.8646 9.00893C46.2751 8.9681 46.8197 9.08061 47.203 9.23431C49.2981 10.0746 49.0696 12.5725 49.7278 14.1238C50.585 14.4042 51.4662 14.5627 52.3493 14.8088C53.9551 15.1791 55.3595 16.9737 54.7119 18.6491C53.9468 20.6281 50.9939 23.1427 49.2135 24.1115C47.2966 25.1545 44.2685 25.0714 42.2689 24.4032C41.9876 24.7926 40.7007 26.0262 40.3189 26.4058C38.8958 27.8028 37.4828 29.2097 36.0797 30.6265C35.134 31.5468 33.4826 33.6675 32.0336 33.7065C31.5437 33.6563 30.9132 33.282 30.6114 32.9312C29.1875 31.276 30.9704 29.9011 32.0657 28.8202L34.3291 26.5845C35.8768 25.0489 37.7994 22.9801 39.3854 21.5864C39.243 21.1901 39.1846 20.8887 39.1197 20.4957C38.4617 16.4444 39.5806 13.7187 42.6506 11.0189C43.8209 9.98966 44.1591 9.25002 45.8646 9.00893Z" fill="#A09920"/>
<path d="M31.5948 19.3609C32.1398 19.3359 32.6511 19.386 33.1867 19.4773C34.1172 20.4633 34.7993 21.5494 33.629 22.7749C32.7944 23.6405 31.6474 23.3153 30.6132 23.5461C27.2658 24.2931 24.8286 26.6944 24.1096 30.039C23.6775 32.1311 24.0925 34.3085 25.2643 36.0972C27.7419 39.9033 32.94 40.9848 36.7078 38.4355C38.6622 37.1132 39.8644 35.292 40.2706 32.9704C40.3568 32.3905 40.4341 31.8117 40.5134 31.2299C40.6631 30.1305 41.8215 29.4342 42.8987 29.6783C43.4596 29.8107 43.9451 30.1589 44.2489 30.6469C44.8922 31.6769 44.3943 33.5902 44.1323 34.7252C41.708 43.792 30.6181 47.0033 23.7079 40.5956C21.3307 38.3988 19.9227 35.3541 19.7916 32.1266C19.5635 25.381 24.7924 19.5926 31.5948 19.3609Z" fill="#FAED36"/>
</svg>
